<mxfile host="app.diagrams.net" agent="Mozilla/5.0 (Windows NT 10.0; Win64; x64) AppleWebKit/537.36 (KHTML, like Gecko) Chrome/133.0.0.0 Safari/537.36" version="26.0.14">
  <diagram name="Page-1" id="c4acf3e9-155e-7222-9cf6-157b1a14988f">
    <mxGraphModel dx="943" dy="1026" grid="1" gridSize="10" guides="1" tooltips="1" connect="1" arrows="1" fold="1" page="1" pageScale="1" pageWidth="850" pageHeight="1100" background="none" math="0" shadow="0">
      <root>
        <mxCell id="0" />
        <mxCell id="1" parent="0" />
        <mxCell id="17acba5748e5396b-1" value="frame" style="shape=umlFrame;whiteSpace=wrap;html=1;rounded=0;shadow=0;comic=0;labelBackgroundColor=none;strokeWidth=1;fontFamily=Verdana;fontSize=10;align=center;" parent="1" vertex="1">
          <mxGeometry x="20" y="20" width="740" height="870" as="geometry" />
        </mxCell>
        <mxCell id="5d2195bd80daf111-9" value="&lt;p style=&quot;margin:0px;margin-top:4px;text-align:center;&quot;&gt;&lt;i&gt;&amp;lt;&amp;lt;Interface&amp;gt;&amp;gt;&lt;/i&gt;&lt;br&gt;&lt;b&gt;TransactionService&lt;/b&gt;&lt;/p&gt;&lt;hr size=&quot;1&quot;&gt;&lt;p style=&quot;margin:0px;margin-left:4px;&quot;&gt;+ creteTransaction(): void&lt;br&gt;+ execute(): void&lt;/p&gt;" style="verticalAlign=top;align=left;overflow=fill;fontSize=12;fontFamily=Helvetica;html=1;rounded=0;shadow=0;comic=0;labelBackgroundColor=none;strokeWidth=1" parent="1" vertex="1">
          <mxGeometry x="540" y="660" width="190" height="80" as="geometry" />
        </mxCell>
        <mxCell id="4cI2nRnSkWmi6Z1Neeqi-26" style="edgeStyle=orthogonalEdgeStyle;rounded=0;orthogonalLoop=1;jettySize=auto;html=1;" edge="1" parent="1" source="5d2195bd80daf111-10" target="4cI2nRnSkWmi6Z1Neeqi-4">
          <mxGeometry relative="1" as="geometry" />
        </mxCell>
        <mxCell id="4cI2nRnSkWmi6Z1Neeqi-37" value="Create" style="edgeLabel;html=1;align=center;verticalAlign=middle;resizable=0;points=[];" vertex="1" connectable="0" parent="4cI2nRnSkWmi6Z1Neeqi-26">
          <mxGeometry x="-0.0894" y="-1" relative="1" as="geometry">
            <mxPoint as="offset" />
          </mxGeometry>
        </mxCell>
        <mxCell id="5d2195bd80daf111-10" value="&lt;p style=&quot;margin:0px;margin-top:4px;text-align:center;&quot;&gt;&lt;i&gt;&amp;lt;&amp;lt;Interface&amp;gt;&amp;gt;&lt;/i&gt;&lt;br&gt;&lt;b&gt;UserService&lt;/b&gt;&lt;/p&gt;&lt;hr size=&quot;1&quot;&gt;&lt;p style=&quot;margin:0px;margin-left:4px;&quot;&gt;+ registerUser(): void&lt;br&gt;+ authUser(): void&lt;/p&gt;&lt;p style=&quot;margin:0px;margin-left:4px;&quot;&gt;+ execute(): void&lt;/p&gt;" style="verticalAlign=top;align=left;overflow=fill;fontSize=12;fontFamily=Helvetica;html=1;rounded=0;shadow=0;comic=0;labelBackgroundColor=none;strokeWidth=1" parent="1" vertex="1">
          <mxGeometry x="310" y="410" width="190" height="100" as="geometry" />
        </mxCell>
        <mxCell id="4cI2nRnSkWmi6Z1Neeqi-25" value="" style="edgeStyle=orthogonalEdgeStyle;rounded=0;orthogonalLoop=1;jettySize=auto;html=1;entryX=0.5;entryY=1;entryDx=0;entryDy=0;" edge="1" parent="1" source="5d2195bd80daf111-11" target="4cI2nRnSkWmi6Z1Neeqi-6">
          <mxGeometry relative="1" as="geometry">
            <mxPoint x="705" y="820" as="targetPoint" />
            <Array as="points" />
          </mxGeometry>
        </mxCell>
        <mxCell id="4cI2nRnSkWmi6Z1Neeqi-31" value="Create" style="edgeLabel;html=1;align=center;verticalAlign=middle;resizable=0;points=[];" vertex="1" connectable="0" parent="4cI2nRnSkWmi6Z1Neeqi-25">
          <mxGeometry x="0.699" y="2" relative="1" as="geometry">
            <mxPoint as="offset" />
          </mxGeometry>
        </mxCell>
        <mxCell id="5d2195bd80daf111-11" value="&lt;p style=&quot;margin:0px;margin-top:4px;text-align:center;&quot;&gt;&lt;i&gt;&amp;lt;&amp;lt;Interface&amp;gt;&amp;gt;&lt;/i&gt;&lt;br&gt;&lt;b&gt;PaymentService&lt;/b&gt;&lt;/p&gt;&lt;hr size=&quot;1&quot;&gt;&lt;p style=&quot;margin:0px;margin-left:4px;&quot;&gt;+ processPayment(): void&lt;br&gt;&lt;/p&gt;&lt;p style=&quot;margin:0px;margin-left:4px;&quot;&gt;+ execute(): void&lt;/p&gt;" style="verticalAlign=top;align=left;overflow=fill;fontSize=12;fontFamily=Helvetica;html=1;rounded=0;shadow=0;comic=0;labelBackgroundColor=none;strokeWidth=1" parent="1" vertex="1">
          <mxGeometry x="380" y="780" width="190" height="80" as="geometry" />
        </mxCell>
        <mxCell id="5d2195bd80daf111-12" value="&lt;p style=&quot;margin:0px;margin-top:4px;text-align:center;&quot;&gt;&lt;i&gt;&amp;lt;&amp;lt;Interface&amp;gt;&amp;gt;&lt;/i&gt;&lt;br&gt;&lt;b&gt;HouseService&lt;/b&gt;&lt;/p&gt;&lt;hr size=&quot;1&quot;&gt;&lt;p style=&quot;margin:0px;margin-left:4px;&quot;&gt;+ addHouse(): void&lt;br&gt;+ upateHouse(): void&lt;/p&gt;&lt;p style=&quot;margin:0px;margin-left:4px;&quot;&gt;+ deleteHouse(): void&lt;/p&gt;&lt;p style=&quot;margin:0px;margin-left:4px;&quot;&gt;+ execute(): void&lt;/p&gt;" style="verticalAlign=top;align=left;overflow=fill;fontSize=12;fontFamily=Helvetica;html=1;rounded=0;shadow=0;comic=0;labelBackgroundColor=none;strokeWidth=1" parent="1" vertex="1">
          <mxGeometry x="390" y="530" width="190" height="110" as="geometry" />
        </mxCell>
        <mxCell id="5d2195bd80daf111-23" style="edgeStyle=orthogonalEdgeStyle;rounded=0;html=1;dashed=1;labelBackgroundColor=none;startFill=0;endArrow=open;endFill=0;endSize=10;fontFamily=Verdana;fontSize=10;entryX=0.5;entryY=1;entryDx=0;entryDy=0;" parent="1" source="5d2195bd80daf111-19" target="4cI2nRnSkWmi6Z1Neeqi-2" edge="1">
          <mxGeometry relative="1" as="geometry">
            <Array as="points" />
            <mxPoint x="155" y="227" as="targetPoint" />
          </mxGeometry>
        </mxCell>
        <mxCell id="5d2195bd80daf111-19" value="&lt;p style=&quot;margin:0px;margin-top:4px;text-align:center;&quot;&gt;&lt;i&gt;&amp;lt;&amp;lt;Interface&amp;gt;&amp;gt;&lt;/i&gt;&lt;br&gt;&lt;b&gt;APIClient&lt;/b&gt;&lt;/p&gt;&lt;hr size=&quot;1&quot;&gt;&lt;p style=&quot;margin:0px;margin-left:4px;&quot;&gt;+ serviceFactory: ServiceFactory&lt;/p&gt;&lt;hr size=&quot;1&quot;&gt;&lt;p style=&quot;margin:0px;margin-left:4px;&quot;&gt;+ getServiceExecution(): void&lt;br&gt;&lt;/p&gt;" style="verticalAlign=top;align=left;overflow=fill;fontSize=12;fontFamily=Helvetica;html=1;rounded=0;shadow=0;comic=0;labelBackgroundColor=none;strokeWidth=1" parent="1" vertex="1">
          <mxGeometry x="60" y="445" width="190" height="100" as="geometry" />
        </mxCell>
        <mxCell id="5d2195bd80daf111-32" style="edgeStyle=orthogonalEdgeStyle;rounded=0;html=1;dashed=1;labelBackgroundColor=none;startFill=0;endArrow=open;endFill=0;endSize=10;fontFamily=Verdana;fontSize=10;exitX=0.5;exitY=1;exitDx=0;exitDy=0;entryX=0.601;entryY=1.007;entryDx=0;entryDy=0;entryPerimeter=0;" parent="1" source="5d2195bd80daf111-12" target="5d2195bd80daf111-20" edge="1">
          <mxGeometry relative="1" as="geometry">
            <Array as="points">
              <mxPoint x="500" y="780" />
              <mxPoint x="174" y="780" />
            </Array>
          </mxGeometry>
        </mxCell>
        <mxCell id="4cI2nRnSkWmi6Z1Neeqi-39" style="edgeStyle=orthogonalEdgeStyle;rounded=0;orthogonalLoop=1;jettySize=auto;html=1;" edge="1" parent="1" source="5d2195bd80daf111-20" target="5d2195bd80daf111-19">
          <mxGeometry relative="1" as="geometry" />
        </mxCell>
        <mxCell id="5d2195bd80daf111-20" value="&lt;p style=&quot;margin:0px;margin-top:4px;text-align:center;&quot;&gt;&lt;i&gt;&amp;lt;&amp;lt;Interface&amp;gt;&amp;gt;&lt;/i&gt;&lt;br&gt;&lt;b&gt;ServiceFactory&lt;/b&gt;&lt;/p&gt;&lt;hr size=&quot;1&quot;&gt;&lt;p style=&quot;margin:0px;margin-left:4px;&quot;&gt;+ createServices(): Service&lt;/p&gt;" style="verticalAlign=top;align=left;overflow=fill;fontSize=12;fontFamily=Helvetica;html=1;rounded=0;shadow=0;comic=0;labelBackgroundColor=none;strokeWidth=1" parent="1" vertex="1">
          <mxGeometry x="60" y="580" width="190" height="70" as="geometry" />
        </mxCell>
        <mxCell id="4cI2nRnSkWmi6Z1Neeqi-2" value="&lt;p style=&quot;margin:0px;margin-top:4px;text-align:center;&quot;&gt;&lt;i&gt;&amp;lt;&amp;lt;Interface&amp;gt;&amp;gt;&lt;/i&gt;&lt;br&gt;&lt;b&gt;ServiceFactory&lt;/b&gt;&lt;/p&gt;&lt;hr size=&quot;1&quot;&gt;&lt;p style=&quot;margin:0px;margin-left:4px;&quot;&gt;+ createServices(): Service&lt;/p&gt;" style="verticalAlign=top;align=left;overflow=fill;fontSize=12;fontFamily=Helvetica;html=1;rounded=0;shadow=0;comic=0;labelBackgroundColor=none;strokeWidth=1" vertex="1" parent="1">
          <mxGeometry x="60" y="140" width="190" height="70" as="geometry" />
        </mxCell>
        <mxCell id="4cI2nRnSkWmi6Z1Neeqi-3" value="«interface»&lt;br&gt;&lt;b&gt;UserServiceFactory&lt;/b&gt;" style="html=1;rounded=0;shadow=0;comic=0;labelBackgroundColor=none;strokeWidth=1;fontFamily=Verdana;fontSize=10;align=center;" vertex="1" parent="1">
          <mxGeometry x="350" y="60" width="125" height="50" as="geometry" />
        </mxCell>
        <mxCell id="4cI2nRnSkWmi6Z1Neeqi-4" value="«interface»&lt;br&gt;&lt;b&gt;HouseServiceFactory&lt;/b&gt;" style="html=1;rounded=0;shadow=0;comic=0;labelBackgroundColor=none;strokeWidth=1;fontFamily=Verdana;fontSize=10;align=center;" vertex="1" parent="1">
          <mxGeometry x="540" y="100" width="125" height="50" as="geometry" />
        </mxCell>
        <mxCell id="4cI2nRnSkWmi6Z1Neeqi-5" value="«interface»&lt;br&gt;&lt;b&gt;TransactionServiceFactory&lt;/b&gt;" style="html=1;rounded=0;shadow=0;comic=0;labelBackgroundColor=none;strokeWidth=1;fontFamily=Verdana;fontSize=10;align=center;" vertex="1" parent="1">
          <mxGeometry x="540" y="190" width="170" height="50" as="geometry" />
        </mxCell>
        <mxCell id="4cI2nRnSkWmi6Z1Neeqi-6" value="«interface»&lt;br&gt;&lt;b&gt;PaymentServiceFactory&lt;/b&gt;" style="html=1;rounded=0;shadow=0;comic=0;labelBackgroundColor=none;strokeWidth=1;fontFamily=Verdana;fontSize=10;align=center;" vertex="1" parent="1">
          <mxGeometry x="425" y="260" width="170" height="50" as="geometry" />
        </mxCell>
        <mxCell id="4cI2nRnSkWmi6Z1Neeqi-10" style="edgeStyle=orthogonalEdgeStyle;rounded=0;html=1;dashed=1;labelBackgroundColor=none;startFill=0;endArrow=open;endFill=0;endSize=10;fontFamily=Verdana;fontSize=10;entryX=0.663;entryY=1.007;entryDx=0;entryDy=0;entryPerimeter=0;exitX=0;exitY=0.5;exitDx=0;exitDy=0;" edge="1" parent="1" source="4cI2nRnSkWmi6Z1Neeqi-6" target="4cI2nRnSkWmi6Z1Neeqi-2">
          <mxGeometry relative="1" as="geometry">
            <Array as="points" />
            <mxPoint x="165" y="455" as="sourcePoint" />
            <mxPoint x="165" y="220" as="targetPoint" />
          </mxGeometry>
        </mxCell>
        <mxCell id="4cI2nRnSkWmi6Z1Neeqi-11" style="edgeStyle=orthogonalEdgeStyle;rounded=0;html=1;dashed=1;labelBackgroundColor=none;startFill=0;endArrow=open;endFill=0;endSize=10;fontFamily=Verdana;fontSize=10;" edge="1" parent="1" source="4cI2nRnSkWmi6Z1Neeqi-5" target="4cI2nRnSkWmi6Z1Neeqi-2">
          <mxGeometry relative="1" as="geometry">
            <Array as="points" />
            <mxPoint x="435" y="295" as="sourcePoint" />
            <mxPoint x="196" y="220" as="targetPoint" />
          </mxGeometry>
        </mxCell>
        <mxCell id="4cI2nRnSkWmi6Z1Neeqi-12" style="edgeStyle=orthogonalEdgeStyle;rounded=0;html=1;dashed=1;labelBackgroundColor=none;startFill=0;endArrow=open;endFill=0;endSize=10;fontFamily=Verdana;fontSize=10;entryX=1;entryY=0.25;entryDx=0;entryDy=0;" edge="1" parent="1" source="4cI2nRnSkWmi6Z1Neeqi-4" target="4cI2nRnSkWmi6Z1Neeqi-2">
          <mxGeometry relative="1" as="geometry">
            <Array as="points" />
            <mxPoint x="550" y="225" as="sourcePoint" />
            <mxPoint x="260" y="185" as="targetPoint" />
          </mxGeometry>
        </mxCell>
        <mxCell id="4cI2nRnSkWmi6Z1Neeqi-13" style="edgeStyle=orthogonalEdgeStyle;rounded=0;html=1;dashed=1;labelBackgroundColor=none;startFill=0;endArrow=open;endFill=0;endSize=10;fontFamily=Verdana;fontSize=10;entryX=1;entryY=0.75;entryDx=0;entryDy=0;exitX=0.598;exitY=0.986;exitDx=0;exitDy=0;exitPerimeter=0;" edge="1" parent="1" source="4cI2nRnSkWmi6Z1Neeqi-3" target="4cI2nRnSkWmi6Z1Neeqi-2">
          <mxGeometry relative="1" as="geometry">
            <Array as="points">
              <mxPoint x="425" y="190" />
              <mxPoint x="260" y="190" />
              <mxPoint x="260" y="192" />
            </Array>
            <mxPoint x="640" y="135" as="sourcePoint" />
            <mxPoint x="260" y="168" as="targetPoint" />
          </mxGeometry>
        </mxCell>
        <mxCell id="4cI2nRnSkWmi6Z1Neeqi-19" style="edgeStyle=orthogonalEdgeStyle;rounded=0;html=1;dashed=1;labelBackgroundColor=none;startFill=0;endArrow=open;endFill=0;endSize=10;fontFamily=Verdana;fontSize=10;entryX=0.75;entryY=1;entryDx=0;entryDy=0;exitX=-0.012;exitY=0.646;exitDx=0;exitDy=0;exitPerimeter=0;" edge="1" parent="1" source="5d2195bd80daf111-9" target="5d2195bd80daf111-20">
          <mxGeometry relative="1" as="geometry">
            <Array as="points">
              <mxPoint x="203" y="712" />
            </Array>
            <mxPoint x="260" y="590" as="sourcePoint" />
            <mxPoint x="415" y="560" as="targetPoint" />
          </mxGeometry>
        </mxCell>
        <mxCell id="4cI2nRnSkWmi6Z1Neeqi-20" style="edgeStyle=orthogonalEdgeStyle;rounded=0;html=1;dashed=1;labelBackgroundColor=none;startFill=0;endArrow=open;endFill=0;endSize=10;fontFamily=Verdana;fontSize=10;" edge="1" parent="1" source="5d2195bd80daf111-11" target="5d2195bd80daf111-20">
          <mxGeometry relative="1" as="geometry">
            <Array as="points">
              <mxPoint x="155" y="840" />
            </Array>
            <mxPoint x="150" y="660" as="sourcePoint" />
            <mxPoint x="465" y="960" as="targetPoint" />
          </mxGeometry>
        </mxCell>
        <mxCell id="4cI2nRnSkWmi6Z1Neeqi-22" style="edgeStyle=orthogonalEdgeStyle;rounded=0;html=1;dashed=1;labelBackgroundColor=none;startFill=0;endArrow=open;endFill=0;endSize=10;fontFamily=Verdana;fontSize=10;exitX=0.25;exitY=1;exitDx=0;exitDy=0;" edge="1" parent="1" source="5d2195bd80daf111-10" target="5d2195bd80daf111-20">
          <mxGeometry relative="1" as="geometry">
            <Array as="points">
              <mxPoint x="358" y="615" />
            </Array>
            <mxPoint x="260" y="590" as="sourcePoint" />
            <mxPoint x="415" y="560" as="targetPoint" />
          </mxGeometry>
        </mxCell>
        <mxCell id="4cI2nRnSkWmi6Z1Neeqi-28" style="edgeStyle=orthogonalEdgeStyle;rounded=0;orthogonalLoop=1;jettySize=auto;html=1;entryX=0.436;entryY=0.937;entryDx=0;entryDy=0;entryPerimeter=0;" edge="1" parent="1" source="5d2195bd80daf111-10" target="4cI2nRnSkWmi6Z1Neeqi-3">
          <mxGeometry relative="1" as="geometry" />
        </mxCell>
        <mxCell id="4cI2nRnSkWmi6Z1Neeqi-36" value="Create" style="edgeLabel;html=1;align=center;verticalAlign=middle;resizable=0;points=[];" vertex="1" connectable="0" parent="4cI2nRnSkWmi6Z1Neeqi-28">
          <mxGeometry x="-0.5669" y="1" relative="1" as="geometry">
            <mxPoint as="offset" />
          </mxGeometry>
        </mxCell>
        <mxCell id="4cI2nRnSkWmi6Z1Neeqi-29" style="edgeStyle=orthogonalEdgeStyle;rounded=0;orthogonalLoop=1;jettySize=auto;html=1;entryX=0.561;entryY=0.937;entryDx=0;entryDy=0;entryPerimeter=0;" edge="1" parent="1" source="5d2195bd80daf111-9" target="4cI2nRnSkWmi6Z1Neeqi-5">
          <mxGeometry relative="1" as="geometry" />
        </mxCell>
        <mxCell id="4cI2nRnSkWmi6Z1Neeqi-38" value="Create" style="edgeLabel;html=1;align=center;verticalAlign=middle;resizable=0;points=[];" vertex="1" connectable="0" parent="4cI2nRnSkWmi6Z1Neeqi-29">
          <mxGeometry x="-0.0306" y="-1" relative="1" as="geometry">
            <mxPoint y="1" as="offset" />
          </mxGeometry>
        </mxCell>
        <mxCell id="4cI2nRnSkWmi6Z1Neeqi-30" value="&amp;nbsp; &amp;nbsp;&amp;nbsp;" style="text;html=1;align=center;verticalAlign=middle;resizable=0;points=[];autosize=1;strokeColor=none;fillColor=none;" vertex="1" parent="1">
          <mxGeometry x="690" y="898" width="40" height="30" as="geometry" />
        </mxCell>
      </root>
    </mxGraphModel>
  </diagram>
</mxfile>
